<?xml version="1.0" encoding="iso-8859-1"?>
<!-- Uploaded to: SVG Repo, www.svgrepo.com, Generator: SVG Repo Mixer Tools -->
<svg height="800px" width="800px" version="1.1" id="Layer_1" xmlns="http://www.w3.org/2000/svg" xmlns:xlink="http://www.w3.org/1999/xlink" 
	 viewBox="0 0 371.911 371.911" xml:space="preserve">
<path style="fill:#FFFFFF;" d="M345.535,228.59c3.685-13.834,5.624-28.121,5.624-42.602c0-91.087-74.214-165.301-165.301-165.301
	S20.622,94.901,20.622,185.988c0,14.481,2.004,28.768,5.624,42.602H345.535z"/>
<g>
	<path style="fill:#56ACE0;" d="M41.697,196.331c0.776,11.119,2.844,22.109,6.141,32.711h42.925
		c-1.293-10.731-2.198-21.657-2.521-32.711H41.697z"/>
	<path style="fill:#56ACE0;" d="M41.697,175.709h46.61c0.711-25.665,4.008-49.778,9.438-71.37
		c-8.404-2.844-16.356-6.141-23.79-9.762C55.596,117.01,43.83,145.067,41.697,175.709z"/>
	<path style="fill:#56ACE0;" d="M88.954,78.804c4.655,2.069,9.568,4.008,14.675,5.754c2.78-8.275,5.947-16.097,9.374-23.402
		C104.339,66.198,96.323,72.081,88.954,78.804z"/>
	<path style="fill:#56ACE0;" d="M175.58,117.98c-20.105-0.711-39.693-3.426-57.859-7.887c-4.978,19.911-8.016,42.214-8.727,65.552
		h66.586V117.98z"/>
	<path style="fill:#56ACE0;" d="M123.539,90.376c16.291,3.879,33.939,6.271,52.105,6.982V41.697
		c-10.731,0.776-21.075,2.651-31.03,5.624C136.404,58.764,129.228,73.438,123.539,90.376z"/>
	<path style="fill:#56ACE0;" d="M111.644,229.042h64v-32.711h-66.651C109.317,207.386,110.287,218.376,111.644,229.042z"/>
	<path style="fill:#56ACE0;" d="M227.232,47.321c-9.956-2.974-20.299-4.913-30.966-5.624v55.661
		c18.166-0.646,35.749-3.038,52.105-6.982C242.618,73.438,235.442,58.764,227.232,47.321z"/>
	<path style="fill:#56ACE0;" d="M196.267,229.042h64c1.422-10.667,2.327-21.592,2.651-32.711h-66.651V229.042z"/>
	<path style="fill:#56ACE0;" d="M196.267,117.98v57.665h66.586c-0.711-23.337-3.814-45.576-8.727-65.552
		C235.96,114.554,216.372,117.269,196.267,117.98z"/>
	<path style="fill:#56ACE0;" d="M258.909,61.156c3.426,7.305,6.529,15.063,9.374,23.337c5.107-1.745,9.956-3.685,14.675-5.754
		C275.588,72.145,267.572,66.198,258.909,61.156z"/>
	<path style="fill:#56ACE0;" d="M281.147,229.042h42.99c3.297-10.602,5.366-21.527,6.141-32.711h-46.61
		C283.281,207.386,282.44,218.311,281.147,229.042z"/>
	<path style="fill:#56ACE0;" d="M330.214,175.644c-2.198-30.642-13.964-58.699-32.323-81.131c-7.434,3.62-15.386,6.853-23.725,9.697
		c5.43,21.721,8.727,45.77,9.438,71.37h46.61V175.644z"/>
</g>
<path style="fill:#FFC10D;" d="M340.945,249.665H30.966c-5.689,0-10.343,4.655-10.343,10.343v80.873
	c0,5.689,4.655,10.343,10.343,10.343h309.915c5.689,0,10.343-4.655,10.343-10.343v-80.873
	C351.224,254.319,346.57,249.665,340.945,249.665z"/>
<g>
	<path style="fill:#194F82;" d="M371.911,185.988c0-102.529-83.394-185.923-185.923-185.923S0,83.459,0,185.988
		c0,18.23,2.715,36.137,7.887,53.463C3.038,244.945,0,252.121,0,260.008v80.873c0,17.067,13.899,30.966,30.966,30.966h309.915
		c17.067,0,30.966-13.899,30.966-30.966v-80.873c0-7.887-3.038-15.063-7.887-20.558
		C369.196,222.125,371.911,204.218,371.911,185.988z M350.901,175.644h-67.297c-0.711-25.665-4.008-49.713-9.438-71.37
		c15.709-5.301,29.931-12.024,41.891-20.105C336.032,109.77,348.703,141.317,350.901,175.644z M350.901,196.331
		c-0.711,11.184-2.651,22.238-5.495,33.099c-1.487-0.259-2.909-0.388-4.461-0.388h-59.798c1.293-10.731,2.133-21.657,2.457-32.711
		H350.901z M302.158,68.59c-9.826,6.271-21.269,11.572-33.875,15.903c-7.434-22.044-17.261-40.727-28.832-54.885
		C263.24,37.754,284.638,51.2,302.158,68.59z M196.267,22.303c21.204,6.4,39.887,32,52.105,68.073
		c-16.291,3.943-33.939,6.335-52.105,6.982V22.303z M196.267,117.98c20.105-0.711,39.693-3.426,57.859-7.887
		c4.913,19.911,8.016,42.214,8.727,65.552h-66.586V117.98z M196.267,196.331h66.586c-0.323,11.119-1.228,22.044-2.651,32.711h-64
		v-32.711H196.267z M175.644,22.303v75.055c-18.166-0.711-35.749-3.103-52.105-6.982C135.693,54.303,154.44,28.638,175.644,22.303z
		 M108.929,175.644c0.711-23.337,3.814-45.576,8.727-65.552c18.166,4.461,37.818,7.176,57.859,7.887v57.665H108.929z
		 M175.644,196.331v32.711h-64c-1.422-10.667-2.327-21.657-2.651-32.711H175.644z M132.461,29.673
		c-11.572,14.158-21.398,32.84-28.832,54.885c-12.606-4.331-24.048-9.632-33.875-15.903C87.208,51.2,108.671,37.754,132.461,29.673z
		 M55.855,84.234c11.96,7.952,26.182,14.739,41.891,20.105c-5.43,21.657-8.727,45.77-9.438,71.37H21.01
		C23.208,141.317,35.879,109.77,55.855,84.234z M90.764,229.042H30.966c-1.552,0-3.038,0.129-4.461,0.388
		c-2.909-10.796-4.784-21.85-5.56-33.099h67.297C88.63,207.386,89.471,218.311,90.764,229.042z M351.224,340.945
		c0,5.689-4.655,10.343-10.343,10.343H30.966c-5.689,0-10.343-4.655-10.343-10.343v-80.937c0-5.689,4.655-10.343,10.343-10.343
		h309.915c5.689,0,10.343,4.655,10.343,10.343v80.873l0,0V340.945z"/>
	<polygon style="fill:#194F82;" points="106.343,309.98 94.836,274.295 78.869,274.295 67.362,309.98 55.855,274.295 
		38.853,274.295 58.958,333.446 75.96,333.446 86.949,301.188 97.81,333.446 114.877,333.446 134.982,274.295 117.915,274.295 	"/>
	<polygon style="fill:#194F82;" points="205.382,309.98 193.875,274.295 177.972,274.295 166.335,309.98 154.828,274.295 
		137.826,274.295 157.931,333.446 174.933,333.446 185.923,301.188 196.784,333.446 213.98,333.446 234.085,274.295 
		216.889,274.295 	"/>
	<polygon style="fill:#194F82;" points="304.356,309.98 292.848,274.295 276.945,274.295 265.438,309.98 253.931,274.295 
		236.865,274.295 256.905,333.446 273.972,333.446 284.962,301.188 295.822,333.446 312.954,333.446 333.059,274.295 
		315.863,274.295 	"/>
</g>
</svg>